
<svg width="392px" height="67px" viewBox="0 0 392 67" version="1.1" xmlns="http://www.w3.org/2000/svg" xmlns:xlink="http://www.w3.org/1999/xlink">
    <!-- Generator: Sketch 3.6.1 (26313) - http://www.bohemiancoding.com/sketch -->
    <title>Group 3</title>
    <desc>Created with Sketch.</desc>
    <defs></defs>
    <g id="Page-1" stroke="none" stroke-width="1" fill="none" fill-rule="evenodd">
        <g id="Group-3" transform="translate(-7.000000, -8.000000)">
            <g id="Group-2" transform="translate(9.000000, 10.000000)" stroke="#252A34" stroke-width="4">
                <path d="M0,50.3787259 C0,50.3787259 8.52524175,36.2227723 28.1944234,36.2227723 C47.8636051,36.2227723 53.9812791,51.3867034 53.9812791,51.3867034" id="Path-8"></path>
                <path d="M19.5639855,45.1993606 L11.7623762,3.25421775 L30.1017768,0" id="Path-9"></path>
                <path d="M29.8499251,0 C29.8499251,0 33.2790916,0.251143031 34.1908685,4.30433616 C35.1026454,8.35752928 36.3524013,22.1720987 36.3524013,22.1720987 L16.3069307,25.3645948" id="Path-10"></path>
                <path d="M36.7062913,22.1453698 C36.7062913,22.1453698 36.4636616,26.6135874 39.7340546,26.6135874 C43.0044477,26.6135874 49.9743053,25.1790925 49.9743053,25.1790925 L45.551634,2.80693069 L35.019802,4.71774606" id="Path-11"></path>
                <path d="M0,50.3787259 C0,50.3787259 8.52524175,36.2227723 28.1944234,36.2227723 C47.8636051,36.2227723 53.9812791,51.3867034 53.9812791,51.3867034" id="Path-8"></path>
                <path d="M19.5639855,45.1993606 L11.7623762,3.25421775 L30.1017768,0" id="Path-9"></path>
                <path d="M29.8499251,0 C29.8499251,0 33.2790916,0.251143031 34.1908685,4.30433616 C35.1026454,8.35752928 36.3524013,22.1720987 36.3524013,22.1720987 L16.3069307,25.3645948" id="Path-10"></path>
                <path d="M36.7062913,22.1453698 C36.7062913,22.1453698 36.4636616,26.6135874 39.7340546,26.6135874 C43.0044477,26.6135874 49.9743053,25.1790925 49.9743053,25.1790925 L45.551634,2.80693069 L35.019802,4.71774606" id="Path-11"></path>
                <path d="M35.820613,51.2724076 C33.9856772,50.7666754 28.2127456,47.7783087 30.0187833,45.4569566 C33.3157293,41.2192973 41.5840387,46.6160792 43.4953737,50.0158411" id="Path-13"></path>
            </g>
            <g id="Group" fill="#252A34">
                <path d="M100.944662,58.5085386 C112.451992,58.5085386 119.016032,53.182177 119.259145,43.271099 L107.751815,43.271099 C107.427665,47.4512815 105.401726,49.2042613 100.944662,49.2042613 C97.3790101,49.2042613 95.4341092,47.3164369 95.4341092,43.271099 L95.4341092,24.9322336 C95.4341092,20.752051 97.4600476,18.8642267 100.944662,18.8642267 C105.320689,18.8642267 107.26559,20.6172064 107.58974,24.9322336 L119.09707,24.9322336 C118.691882,14.9537333 112.370954,9.55994937 101.025699,9.55994937 C89.9235567,9.55994937 83.4405537,14.9537333 83.4405537,24.9322336 L83.4405537,43.271099 C83.4405537,53.182177 89.9235567,58.5085386 100.944662,58.5085386 L100.944662,58.5085386 Z M142.678993,58.5085386 C154.186323,58.5085386 161.074514,52.507954 161.074514,42.3946091 L161.074514,25.8087235 C161.074514,15.6953786 154.186323,9.69479397 142.678993,9.69479397 C131.171663,9.69479397 124.283472,15.6953786 124.283472,25.8087235 L124.283472,42.3946091 C124.283472,52.507954 131.171663,58.5085386 142.678993,58.5085386 L142.678993,58.5085386 Z M142.678993,49.2042613 C138.384004,49.2042613 136.19599,46.8444808 136.19599,42.3946091 L136.19599,25.8087235 C136.19599,21.3588517 138.384004,18.9990713 142.678993,18.9990713 C146.973983,18.9990713 149.161996,21.3588517 149.161996,25.8087235 L149.161996,42.3946091 C149.161996,46.8444808 146.973983,49.2042613 142.678993,49.2042613 L142.678993,49.2042613 Z" id="CO"></path>
                <text id="ALUMNI" font-family="ArialMT, Arial" font-size="62.1396709" font-weight="normal">
                    <tspan x="170.014251" y="56">ALUMNI</tspan>
                </text>
                <rect id="Rectangle-4" x="96.6327362" y="70.71066" width="91.85057" height="3.29653426"></rect>
            </g>
            <path d="M18.1855469,60.2490234 C22.9422616,58.2546961 31.0125111,55.602093 28.9912109,63.5078125" id="Path-636" stroke="#252A34" stroke-width="4"></path>
        </g>
    </g>
</svg>
